<svg width="29" height="28" viewBox="0 0 29 28" fill="none" xmlns="http://www.w3.org/2000/svg">
<g clip-path="url(#clip0_22_185)">
<rect width="29" height="28" rx="2" fill="#5DA5FF"/>
<path d="M27 1.95917H1.99998V26.0408H27V1.95917Z" fill="#001434"/>
<path fill-rule="evenodd" clip-rule="evenodd" d="M8.27659 17.7105V13.592H9.59839C10.0362 13.592 10.4342 13.6511 10.7724 13.7496C11.7475 14.0451 12.2251 14.7247 12.2251 15.6509C12.2251 17.1486 10.9829 17.7398 9.41086 17.7398C8.97308 17.7398 8.63474 17.7302 8.27659 17.7105ZM8.27659 11.711V8.28215C8.59499 8.2624 9.04123 8.24158 9.51876 8.24158C10.9317 8.24158 11.7475 8.85244 11.7475 10.0743C11.7475 10.9216 11.4092 11.4549 10.9914 11.8095C10.7127 11.7504 10.0561 11.7111 9.47901 11.7111H8.27659V11.711ZM6.13591 6.58623V19.395C6.13591 19.4739 6.17566 19.533 6.27523 19.5526C6.91202 19.5724 8.06622 19.592 9.37956 19.592C12.4441 19.612 14.454 18.0944 14.454 15.6114C14.454 13.7394 13.3594 12.8329 12.6232 12.4782C13.1406 12.0644 13.8569 11.2367 13.8569 9.77847C13.8569 8.49753 13.2002 6.36929 9.51888 6.36929C8.30499 6.36929 6.79264 6.40866 6.23548 6.4284C6.15573 6.44827 6.13591 6.48764 6.13591 6.58623ZM20.3824 13.5024H17.9546C18.074 12.4382 18.5715 11.4338 19.7257 11.4338C20.9793 11.4338 21.2977 12.6162 21.2977 13.2665C21.2977 13.3256 21.2778 13.4039 21.2778 13.4827C21.2182 13.5024 20.9993 13.5024 20.3824 13.5024ZM17.9347 15.1445H21.0788C22.1334 15.1445 22.8498 15.0992 23.0886 15.0597C23.188 15.04 23.2279 15.0006 23.2477 14.9021C23.3074 14.6853 23.3472 14.2124 23.3472 13.6409C23.3472 11.8673 22.4317 9.67999 19.8051 9.67999C17.2181 9.67999 15.7455 11.9856 15.7455 14.8035C15.7455 17.4046 16.9395 19.73 20.1235 19.73C21.1184 19.73 21.902 19.592 22.5388 19.2767C22.6184 19.2176 22.6582 19.1585 22.6582 19.0402V17.5426C22.6582 17.4441 22.5985 17.4244 22.5189 17.4638C21.8821 17.7397 21.2775 17.8441 20.5611 17.8441C18.7307 17.8443 17.9546 16.7604 17.9347 15.1445Z" fill="#5DA5FF"/>
</g>
<defs>
<clipPath id="clip0_22_185">
<rect width="29" height="28" fill="white"/>
</clipPath>
</defs>
</svg>
