<svg width="28" height="28" viewBox="0 0 28 28" fill="none" xmlns="http://www.w3.org/2000/svg">
<g clip-path="url(#clip0_22_180)">
<rect width="28" height="28" rx="2" fill="#7289DA"/>
<path d="M18.9219 21.4375L17.7734 20.0703C20.0156 19.4688 20.8906 17.9375 20.8906 17.9375C18.0469 20.6172 10.2812 20.7266 7.27344 17.9375C7.27344 17.9375 8.03906 19.3594 10.3359 20.0703L9.07812 21.4375C5.25 21.3828 3.77344 18.8125 3.77344 18.8125C3.77344 13.125 6.28906 8.58594 6.28906 8.58594C8.85938 6.78125 11.2109 6.78125 11.2109 6.78125L11.375 7C8.20312 7.875 6.83594 9.29688 6.83594 9.29688C10.5547 6.78125 18.2109 7 21.2188 9.29688C21.2734 9.24219 19.4141 7.76562 16.5156 7L16.7891 6.78125C16.7891 6.78125 19.1406 6.78125 21.7109 8.58594C21.7109 8.58594 24.2266 13.125 24.2266 18.8125C24.2266 18.8125 22.75 21.3828 18.9219 21.4375Z" fill="white"/>
<path d="M10.7188 17.1719C11.7155 17.1719 12.5234 16.3149 12.5234 15.2578C12.5234 14.2007 11.7155 13.3438 10.7188 13.3438C9.72205 13.3438 8.91406 14.2007 8.91406 15.2578C8.91406 16.3149 9.72205 17.1719 10.7188 17.1719Z" fill="#7289DA"/>
<path d="M17.0625 17.1719C18.0592 17.1719 18.8672 16.3149 18.8672 15.2578C18.8672 14.2007 18.0592 13.3438 17.0625 13.3438C16.0658 13.3438 15.2578 14.2007 15.2578 15.2578C15.2578 16.3149 16.0658 17.1719 17.0625 17.1719Z" fill="#7289DA"/>
</g>
<defs>
<clipPath id="clip0_22_180">
<rect width="28" height="28" fill="white"/>
</clipPath>
</defs>
</svg>
