<svg width="28" height="28" viewBox="0 0 28 28" fill="none" xmlns="http://www.w3.org/2000/svg">
<g clip-path="url(#clip0_22_154)">
<path d="M7.10007 27.901C5.4349 27.8252 4.53033 27.5481 3.92867 27.3135C3.13145 27.0031 2.56308 26.6336 1.96475 26.0361C1.36642 25.4386 0.996107 24.8702 0.687372 24.073C0.4527 23.4713 0.175588 22.5668 0.0998603 20.9016C0.0166434 19.1016 0 18.5615 0 14.0012C0 9.44096 0.0183077 8.90172 0.0990281 7.10007C0.174756 5.4349 0.453532 4.53199 0.68654 3.92867C0.996939 3.13145 1.36725 2.56308 1.96392 1.96392C2.56142 1.36642 3.12979 0.995274 3.92784 0.68654C4.5295 0.451868 5.43407 0.174756 7.09924 0.0990281C8.90005 0.0166434 9.44096 0 13.9996 0C18.5599 0 19.0991 0.0183077 20.9008 0.0990281C22.5659 0.174756 23.4688 0.453532 24.0722 0.68654C24.8694 0.995274 25.4378 1.36642 26.0361 1.96392C26.6344 2.56142 27.0031 3.13062 27.3135 3.92784C27.5481 4.5295 27.8252 5.43407 27.901 7.09924C27.9834 8.90088 28 9.44013 28 14.0004C28 18.559 27.9834 19.0999 27.901 20.9016C27.8252 22.5668 27.5465 23.4713 27.3135 24.073C27.0031 24.8702 26.6336 25.4386 26.0361 26.0361C25.4386 26.6336 24.8694 27.0031 24.0722 27.3135C23.4705 27.5481 22.5659 27.8252 20.9008 27.901C19.1008 27.9834 18.5599 28 13.9996 28C9.44096 28 8.90005 27.9842 7.10007 27.901Z" fill="url(#paint0_radial_22_154)"/>
<path d="M7.10007 27.901C5.4349 27.8252 4.53033 27.5481 3.92867 27.3135C3.13145 27.0031 2.56308 26.6336 1.96475 26.0361C1.36642 25.4386 0.996107 24.8702 0.687372 24.073C0.4527 23.4713 0.175588 22.5668 0.0998603 20.9016C0.0166434 19.1016 0 18.5615 0 14.0012C0 9.44096 0.0183077 8.90172 0.0990281 7.10007C0.174756 5.4349 0.453532 4.53199 0.68654 3.92867C0.996939 3.13145 1.36725 2.56308 1.96392 1.96392C2.56142 1.36642 3.12979 0.995274 3.92784 0.68654C4.5295 0.451868 5.43407 0.174756 7.09924 0.0990281C8.90005 0.0166434 9.44096 0 13.9996 0C18.5599 0 19.0991 0.0183077 20.9008 0.0990281C22.5659 0.174756 23.4688 0.453532 24.0722 0.68654C24.8694 0.995274 25.4378 1.36642 26.0361 1.96392C26.6344 2.56142 27.0031 3.13062 27.3135 3.92784C27.5481 4.5295 27.8252 5.43407 27.901 7.09924C27.9834 8.90088 28 9.44013 28 14.0004C28 18.559 27.9834 19.0999 27.901 20.9016C27.8252 22.5668 27.5465 23.4713 27.3135 24.073C27.0031 24.8702 26.6336 25.4386 26.0361 26.0361C25.4386 26.6336 24.8694 27.0031 24.0722 27.3135C23.4705 27.5481 22.5659 27.8252 20.9008 27.901C19.1008 27.9834 18.5599 28 13.9996 28C9.44096 28 8.90005 27.9842 7.10007 27.901Z" fill="url(#paint1_radial_22_154)"/>
<path d="M10.5623 14.0597C10.5623 12.1448 12.1142 10.592 14.0291 10.592C15.944 10.592 17.4968 12.1448 17.4968 14.0597C17.4968 15.9746 15.944 17.5273 14.0291 17.5273C12.1142 17.5273 10.5623 15.9746 10.5623 14.0597ZM8.68776 14.0597C8.68776 17.0097 11.0791 19.401 14.0291 19.401C16.9792 19.401 19.3705 17.0097 19.3705 14.0597C19.3705 11.1096 16.9792 8.71832 14.0291 8.71832C11.0791 8.71832 8.68784 11.1095 8.68784 14.0597M18.3338 8.50653C18.3337 8.75341 18.4068 8.99478 18.5439 9.20011C18.6809 9.40544 18.8758 9.56551 19.1039 9.66007C19.3319 9.75464 19.5829 9.77946 19.8251 9.73139C20.0672 9.68333 20.2897 9.56453 20.4643 9.39003C20.639 9.21553 20.7579 8.99316 20.8062 8.75104C20.8545 8.50892 20.8298 8.25793 20.7354 8.0298C20.6411 7.80168 20.4811 7.60666 20.2759 7.46942C20.0707 7.33218 19.8294 7.25887 19.5825 7.25877H19.582C19.2511 7.25893 18.9338 7.39042 18.6997 7.62437C18.4657 7.85833 18.3341 8.17561 18.3338 8.50653ZM9.82667 22.5268C8.8125 22.4806 8.26127 22.3117 7.89495 22.169C7.4093 21.9799 7.06278 21.7547 6.69846 21.3909C6.33414 21.0271 6.10862 20.6809 5.92038 20.1953C5.77758 19.8291 5.60865 19.2777 5.56255 18.2635C5.51212 17.1671 5.50205 16.8377 5.50205 14.0598C5.50205 11.282 5.51295 10.9535 5.56255 9.85614C5.60873 8.84198 5.77891 8.29166 5.92038 7.92443C6.10945 7.43877 6.33464 7.09226 6.69846 6.72793C7.06228 6.36361 7.40847 6.13809 7.89495 5.94986C8.26111 5.80706 8.8125 5.63812 9.82667 5.59202C10.9231 5.54159 11.2525 5.53152 14.0291 5.53152C16.8057 5.53152 17.1354 5.54226 18.2328 5.59219C19.247 5.63837 19.7973 5.80855 20.1645 5.95002C20.6502 6.13826 20.9967 6.36428 21.361 6.7281C21.7254 7.09192 21.95 7.43894 22.1391 7.92459C22.2819 8.29075 22.4508 8.84214 22.4969 9.85631C22.5474 10.9537 22.5574 11.2821 22.5574 14.06C22.5574 16.8379 22.5474 17.1663 22.4969 18.2637C22.4508 19.2779 22.281 19.8291 22.1391 20.1954C21.95 20.6811 21.7249 21.0276 21.361 21.3911C20.9972 21.7546 20.6502 21.9801 20.1645 22.1692C19.7984 22.312 19.247 22.4809 18.2328 22.527C17.1364 22.5774 16.807 22.5875 14.0291 22.5875C11.2513 22.5875 10.9228 22.5774 9.82667 22.527M9.74054 3.72056C8.63317 3.77099 7.87648 3.94657 7.21565 4.20371C6.53169 4.46926 5.95192 4.82551 5.37298 5.40354C4.79404 5.98156 4.4387 6.56142 4.17316 7.24621C3.91602 7.90745 3.74043 8.66373 3.69 9.77109C3.63874 10.8802 3.62701 11.2348 3.62701 14.0597C3.62701 16.8846 3.63874 17.2391 3.69 18.3483C3.74043 19.4557 3.91602 20.2119 4.17316 20.8731C4.4387 21.5571 4.79412 22.138 5.37298 22.7158C5.95184 23.2936 6.53086 23.6493 7.21565 23.9156C7.87773 24.1728 8.63317 24.3484 9.74054 24.3988C10.8502 24.4492 11.2042 24.4618 14.0291 24.4618C16.854 24.4618 17.2086 24.4501 18.3177 24.3988C19.4252 24.3484 20.1814 24.1728 20.8426 23.9156C21.5266 23.6493 22.1063 23.2938 22.6853 22.7158C23.2642 22.1378 23.6188 21.5571 23.8851 20.8731C24.1422 20.2119 24.3186 19.4556 24.3682 18.3483C24.4187 17.2383 24.4304 16.8846 24.4304 14.0597C24.4304 11.2348 24.4187 10.8802 24.3682 9.77109C24.3178 8.66364 24.1422 7.90703 23.8851 7.24621C23.6188 6.56225 23.2633 5.98248 22.6853 5.40354C22.1072 4.8246 21.5266 4.46926 20.8434 4.20371C20.1813 3.94657 19.4251 3.77015 18.3185 3.72056C17.2093 3.66988 16.8548 3.65756 14.0304 3.65756C11.2059 3.65756 10.8507 3.6693 9.74095 3.72056" fill="white"/>
</g>
<defs>
<radialGradient id="paint0_radial_22_154" cx="0" cy="0" r="1" gradientUnits="userSpaceOnUse" gradientTransform="translate(1.81213 27.3866) scale(35.5496)">
<stop offset="0.09" stop-color="#FA8F21"/>
<stop offset="0.78" stop-color="#D82D7E"/>
</radialGradient>
<radialGradient id="paint1_radial_22_154" cx="0" cy="0" r="1" gradientUnits="userSpaceOnUse" gradientTransform="translate(19.3946 26.4875) scale(31.284)">
<stop offset="0.64" stop-color="#8C3AAA" stop-opacity="0"/>
<stop offset="1" stop-color="#8C3AAA"/>
</radialGradient>
<clipPath id="clip0_22_154">
<rect width="28" height="28" fill="white"/>
</clipPath>
</defs>
</svg>
