<svg width="28" height="28" viewBox="0 0 28 28" fill="none" xmlns="http://www.w3.org/2000/svg">
<g clip-path="url(#clip0_22_205)">
<path d="M14.1951 4.94375C14.9389 4.94375 15.6826 5.10431 16.3577 5.4075C17.4742 5.908 18.3859 6.853 18.8374 7.99444C19.0956 8.64762 19.1034 9.39969 19.0973 10.0923L19.0518 11.2893L18.9949 12.2198C18.9906 12.2907 18.9661 12.3861 18.9818 12.4561C19.0159 12.6092 19.2592 12.7116 19.3931 12.7536C19.7474 12.8651 20.1184 12.7842 20.4597 12.663C20.6631 12.5904 20.8464 12.4692 21.0696 12.4897C21.2314 12.5046 21.4187 12.5772 21.5333 12.6936C21.6541 12.8161 21.6287 12.9386 21.5246 13.0559C21.3277 13.2799 21.0013 13.4072 20.7257 13.4977C20.4194 13.5971 20.1132 13.6859 19.8363 13.8364C19.5589 13.9851 19.3025 14.1995 19.1931 14.504C19.0662 14.8584 19.1721 15.2171 19.3218 15.5453C19.578 16.1018 19.9039 16.6236 20.2917 17.0979C21.0136 17.9861 21.9559 18.7053 23.0611 19.0339C23.2229 19.0776 23.3883 19.1214 23.5546 19.1529C23.6246 19.166 23.6709 19.1498 23.6464 19.2251C23.6429 19.2347 23.6364 19.2434 23.6316 19.2522C23.5948 19.3134 23.534 19.3633 23.4767 19.4053C23.1507 19.6437 22.7216 19.7536 22.3366 19.8472L21.7862 19.9653C21.6024 20.0003 21.3793 20.0003 21.2087 20.0747C20.923 20.1985 20.8806 20.6251 20.8219 20.8884L20.7484 21.1956C20.7239 21.2857 20.7309 21.3321 20.6347 21.3334C20.4697 21.336 20.3031 21.2922 20.1421 21.2625C19.7623 21.1925 19.3764 21.1549 18.9906 21.1645C18.5684 21.1746 18.1374 21.2231 17.745 21.3867C17.3696 21.5434 17.0336 21.7792 16.7038 22.0124C16.1262 22.4201 15.5391 22.8244 14.8369 22.9801C14.4852 23.058 14.1212 23.0663 13.762 23.0545C13.3794 23.0421 13.002 22.9627 12.6468 22.82C11.9696 22.5487 11.4187 22.0675 10.8076 21.6825C10.4602 21.4638 10.0914 21.2905 9.68319 21.2262C9.25006 21.1579 8.81038 21.1444 8.37506 21.1912L7.87063 21.2673C7.707 21.2979 7.52937 21.3561 7.36225 21.3496C7.2835 21.3461 7.28219 21.3224 7.26162 21.2489L7.18069 20.9156C7.14306 20.7449 7.11069 20.5699 7.04944 20.4054C7.00569 20.2768 6.93 20.146 6.80137 20.0839C6.63687 20.0051 6.412 20.006 6.23263 19.9727C5.90013 19.9106 5.56763 19.8371 5.24388 19.7343C4.96606 19.6468 4.63137 19.5396 4.42137 19.3231C4.40125 19.3025 4.382 19.2806 4.36713 19.2561C4.36275 19.2482 4.35531 19.2395 4.35269 19.2299C4.32994 19.1599 4.35706 19.1695 4.42531 19.1572C4.74732 19.0983 5.06258 19.0071 5.36637 18.8851C5.922 18.662 6.43388 18.3382 6.88581 17.948C7.5495 17.3749 8.09944 16.6617 8.50894 15.8874C8.64894 15.6227 8.79944 15.3331 8.84669 15.0378C8.96569 14.2958 8.35494 13.8758 7.73894 13.6518C7.41169 13.5328 7.07481 13.4514 6.76944 13.2781C6.63031 13.1994 6.35994 13.0419 6.38094 12.8441C6.39669 12.6945 6.58219 12.593 6.706 12.5466C6.79 12.5151 6.88188 12.4941 6.97287 12.4998C7.08137 12.5059 7.17413 12.5632 7.27344 12.6039C7.63306 12.7514 8.03469 12.8564 8.42581 12.7956C8.62094 12.7649 8.82394 12.6906 8.96394 12.5475C8.99763 12.5125 9.01031 12.4981 9.01819 12.4556C9.03219 12.3782 9.00813 12.2745 9.00375 12.1966L8.96525 11.5754L8.92762 9.19669C8.953 8.85719 8.99763 8.51506 9.09606 8.18869C9.1945 7.86231 9.35944 7.5565 9.53619 7.26863C9.86169 6.73838 10.2843 6.26981 10.7887 5.90363C11.5273 5.36637 12.4189 5.05838 13.3249 4.97175C13.6137 4.94419 13.9042 4.94462 14.1943 4.94462M0 23.52C0 25.9941 2.00594 28 4.48 28H23.52C25.9941 28 28 25.9941 28 23.52V4.48C28 2.00594 25.9941 0 23.52 0H4.48C2.00594 0 0 2.00594 0 4.48V23.52Z" fill="black"/>
<path d="M0.524994 4.47999C0.524994 2.29599 2.29599 0.524994 4.47999 0.524994H23.52C25.704 0.524994 27.475 2.29599 27.475 4.47999V23.52C27.475 25.704 25.704 27.475 23.52 27.475H4.47999C2.29599 27.475 0.524994 25.704 0.524994 23.52V4.47999ZM14.1951 4.52549C13.5257 4.52856 12.8765 4.56924 12.2281 4.75299C11.1947 5.04612 10.2629 5.63499 9.58562 6.47237C9.16562 6.99124 8.80118 7.60856 8.64412 8.26174C8.46912 8.98974 8.47087 9.75799 8.49362 10.5017C8.50543 10.8946 8.52862 11.2871 8.55312 11.6795L8.57062 11.9639C8.57499 12.0277 8.62093 12.2692 8.58287 12.3126C8.50412 12.4027 8.25124 12.3966 8.14887 12.3926C7.96512 12.3856 7.78312 12.3419 7.60943 12.2832C7.41999 12.2185 7.24062 12.1039 7.03893 12.0846C6.87608 12.072 6.71243 12.0951 6.55947 12.1524C6.4065 12.2097 6.26792 12.2997 6.15343 12.4162C5.78156 12.8091 6.01781 13.2729 6.40106 13.5393C6.71037 13.7537 7.06474 13.8674 7.41868 13.9834C7.71181 14.0796 8.03381 14.1907 8.25737 14.4121C8.58374 14.7359 8.40087 15.1624 8.22849 15.5164C8.09294 15.7916 7.93858 16.0573 7.76649 16.3113C7.18462 17.1776 6.40806 17.9388 5.45649 18.3877C5.1698 18.5231 4.86962 18.628 4.56093 18.7005C4.40956 18.7355 4.22493 18.7381 4.09499 18.83C3.95324 18.9306 3.89506 19.103 3.92874 19.2701C4.01362 19.6962 4.52462 19.9176 4.88468 20.0524C5.20274 20.1705 5.53349 20.2545 5.86468 20.3245C6.06681 20.3674 6.27024 20.4046 6.47412 20.4382C6.57343 20.4544 6.61849 20.4479 6.65524 20.5441C6.68324 20.6185 6.70162 20.6972 6.71999 20.7742C6.76549 20.9641 6.80181 21.1562 6.85387 21.3443C6.88799 21.4677 6.93262 21.5849 7.03674 21.6681C7.30624 21.8802 7.73237 21.7162 8.03249 21.6637C8.83312 21.5215 9.70462 21.5263 10.4256 21.9411C11.0512 22.3011 11.592 22.7885 12.2465 23.1017C12.943 23.4342 13.7121 23.5305 14.4777 23.4596C15.1944 23.3931 15.8427 23.0987 16.4377 22.7062C17.087 22.2775 17.6846 21.7337 18.4826 21.6256C18.9171 21.567 19.3576 21.5701 19.7907 21.63C20.0917 21.672 20.4046 21.777 20.7095 21.7503C21.1242 21.714 21.1676 21.2625 21.2397 20.9357C21.2686 20.8044 21.2817 20.6076 21.3605 20.4947C21.4069 20.4291 21.5368 20.4352 21.6164 20.4221L21.9498 20.3608C22.5317 20.2471 23.1748 20.1136 23.6744 19.7767C23.8188 19.6792 23.9571 19.5545 24.0288 19.3917C24.0962 19.2386 24.0988 19.0619 23.9969 18.9236C23.8906 18.7792 23.7344 18.7631 23.5716 18.7302C22.9626 18.6077 22.386 18.3549 21.8741 18.0053C21.0888 17.4698 20.4522 16.7247 19.9767 15.9053C19.878 15.7349 19.7874 15.5598 19.7054 15.3807C19.5742 15.1042 19.4639 14.777 19.6617 14.5031C19.8437 14.2511 20.1722 14.1242 20.4549 14.0249C20.8022 13.9024 21.1536 13.8079 21.4734 13.6181C21.7066 13.4798 21.9516 13.2847 22.0185 13.0082C22.1935 12.2811 21.1549 11.9131 20.6141 12.1454C20.2803 12.2889 19.8747 12.4722 19.5072 12.3511C19.4836 12.3432 19.4416 12.3353 19.4197 12.3174C19.39 12.2867 19.4057 12.2386 19.4084 12.1914L19.4587 11.3776C19.5046 10.5989 19.5418 9.81399 19.4718 9.03612C19.4403 8.68612 19.3874 8.34356 19.2815 8.01237C19.1782 7.68949 19.0159 7.38149 18.8418 7.09143C18.5181 6.55068 18.1011 6.06681 17.6054 5.67656C16.8591 5.08899 15.953 4.72893 15.0163 4.58893C14.7427 4.54671 14.4663 4.52507 14.1894 4.52418M7.48168 1.24293C7.23362 1.24293 7.03237 1.44418 7.03281 1.69224C7.03324 1.94031 7.23406 2.14112 7.48168 2.14112C7.72931 2.14112 7.93099 1.93987 7.93056 1.69181C7.93012 1.44374 7.72931 1.24293 7.48168 1.24293ZM8.92893 1.24293C8.68087 1.24293 8.47962 1.44418 8.48006 1.69224C8.48049 1.94031 8.68131 2.14112 8.92893 2.14112C9.17656 2.14112 9.37824 1.93987 9.37781 1.69181C9.37737 1.44374 9.17656 1.24293 8.92893 1.24293ZM13.2707 1.24293C13.0226 1.24293 12.8214 1.44418 12.8218 1.69224C12.8222 1.94031 13.0231 2.14112 13.2707 2.14112C13.5183 2.14112 13.72 1.93987 13.7196 1.69181C13.7191 1.44374 13.5183 1.24293 13.2707 1.24293ZM14.7188 1.24293C14.4707 1.24293 14.2695 1.44418 14.2699 1.69224C14.2704 1.94031 14.4712 2.14112 14.7188 2.14112C14.9664 2.14112 15.1681 1.93987 15.1677 1.69181C15.1672 1.44374 14.9664 1.24293 14.7188 1.24293ZM20.5082 1.24293C20.2602 1.24293 20.0589 1.44418 20.0594 1.69224C20.0598 1.94031 20.2606 2.14112 20.5082 2.14112C20.7559 2.14112 20.9576 1.93987 20.9571 1.69181C20.9567 1.44374 20.7559 1.24293 20.5082 1.24293ZM3.14562 2.69587C2.89756 2.69587 2.69631 2.89712 2.69631 3.14518C2.69631 3.39324 2.89756 3.59449 3.14562 3.59449C3.39368 3.59449 3.59493 3.39324 3.59493 3.14518C3.59493 2.89712 3.39368 2.69587 3.14562 2.69587ZM7.48737 2.69587C7.23931 2.69587 7.03806 2.89712 7.03806 3.14518C7.03806 3.39324 7.23931 3.59449 7.48737 3.59449C7.73543 3.59449 7.93668 3.39324 7.93668 3.14518C7.93668 2.89712 7.73543 2.69587 7.48737 2.69587ZM8.93462 2.69587C8.68656 2.69587 8.48531 2.89712 8.48531 3.14518C8.48531 3.39324 8.68656 3.59449 8.93462 3.59449C9.18268 3.59449 9.38393 3.39324 9.38393 3.14518C9.38393 2.89712 9.18268 2.69587 8.93462 2.69587ZM13.2764 2.69587C13.0283 2.69587 12.8271 2.89712 12.8271 3.14518C12.8271 3.39324 13.0283 3.59449 13.2764 3.59449C13.5244 3.59449 13.7257 3.39324 13.7257 3.14518C13.7257 2.89712 13.5244 2.69587 13.2764 2.69587ZM14.7245 2.69587C14.4764 2.69587 14.2752 2.89712 14.2752 3.14518C14.2752 3.39324 14.4764 3.59449 14.7245 3.59449C14.9726 3.59449 15.1738 3.39324 15.1738 3.14518C15.1738 2.89712 14.9726 2.69587 14.7245 2.69587ZM16.1717 2.69587C15.9237 2.69587 15.7224 2.89712 15.7224 3.14518C15.7224 3.39324 15.9237 3.59449 16.1717 3.59449C16.4198 3.59449 16.6211 3.39324 16.6211 3.14518C16.6211 2.89712 16.4198 2.69587 16.1717 2.69587ZM20.5135 2.69587C20.2654 2.69587 20.0642 2.89712 20.0642 3.14518C20.0642 3.39324 20.2654 3.59449 20.5135 3.59449C20.7616 3.59449 20.9628 3.39324 20.9628 3.14518C20.9628 2.89712 20.7616 2.69587 20.5135 2.69587ZM23.408 2.69587C23.1599 2.69587 22.9587 2.89712 22.9587 3.14518C22.9587 3.39324 23.1599 3.59449 23.408 3.59449C23.6561 3.59449 23.8573 3.39324 23.8573 3.14518C23.8573 2.89712 23.6561 2.69587 23.408 2.69587ZM24.8552 2.69587C24.6072 2.69587 24.4059 2.89712 24.4059 3.14518C24.4059 3.39324 24.6072 3.59449 24.8552 3.59449C25.1033 3.59449 25.3046 3.39324 25.3046 3.14518C25.3046 2.89712 25.1033 2.69587 24.8552 2.69587ZM3.14562 4.14312C2.89756 4.14312 2.69631 4.34437 2.69631 4.59243C2.69631 4.84049 2.89756 5.04174 3.14562 5.04174C3.39368 5.04174 3.59493 4.84049 3.59493 4.59243C3.59493 4.34437 3.39324 4.14312 3.14562 4.14312ZM4.59287 4.14312C4.34481 4.14312 4.14356 4.34437 4.14356 4.59243C4.14356 4.84049 4.34481 5.04174 4.59287 5.04174C4.84093 5.04174 5.04218 4.84049 5.04218 4.59243C5.04218 4.34437 4.84093 4.14312 4.59287 4.14312ZM19.0662 4.14312C18.8182 4.14312 18.6169 4.34437 18.6169 4.59243C18.6169 4.84049 18.8182 5.04174 19.0662 5.04174C19.3143 5.04174 19.5156 4.84049 19.5156 4.59243C19.5156 4.34437 19.3143 4.14312 19.0662 4.14312ZM20.5135 4.14312C20.2654 4.14312 20.0642 4.34437 20.0642 4.59243C20.0642 4.84049 20.2654 5.04174 20.5135 5.04174C20.7616 5.04174 20.9628 4.84049 20.9628 4.59243C20.9628 4.34437 20.7616 4.14312 20.5135 4.14312ZM1.69749 5.59037C1.44943 5.59037 1.24818 5.79162 1.24818 6.03968C1.24818 6.28774 1.44943 6.48899 1.69749 6.48899C1.94556 6.48899 2.14681 6.28774 2.14681 6.03968C2.14681 5.79162 1.94556 5.59037 1.69749 5.59037ZM7.48693 5.59037C7.23887 5.59037 7.03762 5.79162 7.03762 6.03968C7.03762 6.28774 7.23887 6.48899 7.48693 6.48899C7.73499 6.48899 7.93624 6.28774 7.93624 6.03968C7.93624 5.79162 7.73499 5.59037 7.48693 5.59037ZM20.5131 5.59037C20.265 5.59037 20.0637 5.79162 20.0637 6.03968C20.0637 6.28774 20.265 6.48899 20.5131 6.48899C20.7611 6.48899 20.9624 6.28774 20.9624 6.03968C20.9624 5.79162 20.7611 5.59037 20.5131 5.59037ZM23.4076 5.59037C23.1595 5.59037 22.9582 5.79162 22.9582 6.03968C22.9582 6.28774 23.1595 6.48899 23.4076 6.48899C23.6556 6.48899 23.8569 6.28774 23.8569 6.03968C23.8569 5.79162 23.6556 5.59037 23.4076 5.59037ZM24.8548 5.59037C24.6067 5.59037 24.4055 5.79162 24.4055 6.03968C24.4055 6.28774 24.6067 6.48899 24.8548 6.48899C25.1029 6.48899 25.3041 6.28774 25.3041 6.03968C25.3041 5.79162 25.1029 5.59037 24.8548 5.59037ZM26.3021 5.59037C26.054 5.59037 25.8527 5.79162 25.8527 6.03968C25.8527 6.28774 26.054 6.48899 26.3021 6.48899C26.5501 6.48899 26.7514 6.28774 26.7514 6.03968C26.7514 5.79162 26.5501 5.59037 26.3021 5.59037ZM6.03968 7.03762C5.79162 7.03806 5.59081 7.23887 5.59081 7.48737C5.59081 7.73587 5.79206 7.93581 6.03968 7.93624C6.28731 7.93668 6.48856 7.73499 6.48856 7.48649C6.48856 7.23799 6.28731 7.03806 6.03968 7.03762ZM23.4076 7.03762C23.1595 7.03806 22.9587 7.23887 22.9587 7.48737C22.9587 7.73587 23.1599 7.93581 23.4076 7.93624C23.6552 7.93668 23.8564 7.73499 23.8564 7.48649C23.8564 7.23799 23.6552 7.03806 23.4076 7.03762ZM1.69749 8.48487C1.44943 8.48487 1.24818 8.68612 1.24818 8.93418C1.24818 9.18224 1.44943 9.38349 1.69749 9.38349C1.94556 9.38349 2.14681 9.18224 2.14681 8.93418C2.14681 8.68612 1.94556 8.48487 1.69749 8.48487ZM3.14474 8.48487C2.89668 8.48487 2.69543 8.68612 2.69543 8.93418C2.69543 9.18224 2.89668 9.38349 3.14474 9.38349C3.39281 9.38349 3.59406 9.18224 3.59406 8.93418C3.59406 8.68612 3.39281 8.48487 3.14474 8.48487ZM7.48649 8.48487C7.23843 8.48487 7.03718 8.68612 7.03718 8.93418C7.03718 9.18224 7.23843 9.38349 7.48649 9.38349C7.73456 9.38349 7.93581 9.18224 7.93581 8.93418C7.93581 8.68612 7.73456 8.48487 7.48649 8.48487ZM20.5126 8.48487C20.2646 8.48487 20.0633 8.68612 20.0633 8.93418C20.0633 9.18224 20.2646 9.38349 20.5126 9.38349C20.7607 9.38349 20.9619 9.18224 20.9619 8.93418C20.9619 8.68612 20.7607 8.48487 20.5126 8.48487ZM23.4071 8.48487C23.1591 8.48487 22.9578 8.68612 22.9578 8.93418C22.9578 9.18224 23.1591 9.38349 23.4071 9.38349C23.6552 9.38349 23.8564 9.18224 23.8564 8.93418C23.8564 8.68612 23.6552 8.48487 23.4071 8.48487ZM24.8544 8.48487C24.6063 8.48487 24.4051 8.68612 24.4051 8.93418C24.4051 9.18224 24.6063 9.38349 24.8544 9.38349C25.1024 9.38349 25.3037 9.18224 25.3037 8.93418C25.3037 8.68612 25.1024 8.48487 24.8544 8.48487ZM4.59199 9.93212C4.34393 9.93212 4.14268 10.1334 4.14268 10.3814C4.14268 10.6295 4.34393 10.8307 4.59199 10.8307C4.84006 10.8307 5.04131 10.6295 5.04131 10.3814C5.04131 10.1334 4.84006 9.93212 4.59199 9.93212ZM7.48649 9.93212C7.23843 9.93212 7.03718 10.1334 7.03718 10.3814C7.03718 10.6295 7.23843 10.8307 7.48649 10.8307C7.73456 10.8307 7.93581 10.6295 7.93581 10.3814C7.93581 10.1334 7.73456 9.93212 7.48649 9.93212ZM21.9599 9.93212C21.7118 9.93212 21.5106 10.1334 21.5106 10.3814C21.5106 10.6295 21.7118 10.8307 21.9599 10.8307C22.2079 10.8307 22.4092 10.6295 22.4092 10.3814C22.4092 10.1334 22.2079 9.93212 21.9599 9.93212ZM23.4071 9.93212C23.1591 9.93212 22.9578 10.1334 22.9578 10.3814C22.9578 10.6295 23.1591 10.8307 23.4071 10.8307C23.6552 10.8307 23.8564 10.6295 23.8564 10.3814C23.8564 10.1334 23.6552 9.93212 23.4071 9.93212ZM26.3016 9.93212C26.0536 9.93212 25.8523 10.1334 25.8523 10.3814C25.8523 10.6295 26.0536 10.8307 26.3016 10.8307C26.5497 10.8307 26.7509 10.6295 26.7509 10.3814C26.7509 10.1334 26.5497 9.93212 26.3016 9.93212ZM1.69749 11.3794C1.44943 11.3798 1.24862 11.5806 1.24862 11.8291C1.24862 12.0776 1.44987 12.2776 1.69749 12.278C1.94512 12.2784 2.14637 12.0767 2.14637 11.8282C2.14637 11.5797 1.94512 11.3798 1.69749 11.3794ZM24.8544 11.3794C24.6063 11.3798 24.4055 11.5806 24.4055 11.8291C24.4055 12.0776 24.6067 12.2776 24.8544 12.278C25.102 12.2784 25.3032 12.0767 25.3032 11.8282C25.3032 11.5797 25.102 11.3798 24.8544 11.3794ZM26.3016 11.3794C26.0536 11.3798 25.8527 11.5806 25.8527 11.8291C25.8527 12.0776 26.054 12.2776 26.3016 12.278C26.5492 12.2784 26.7505 12.0767 26.7505 11.8282C26.7505 11.5797 26.5492 11.3798 26.3016 11.3794ZM1.69749 12.8275C1.44943 12.8279 1.24862 13.0287 1.24862 13.2772C1.24862 13.5257 1.44987 13.7257 1.69749 13.7261C1.94512 13.7266 2.14637 13.5249 2.14637 13.2764C2.14637 13.0279 1.94512 12.8279 1.69749 12.8275ZM3.14474 12.8275C2.89668 12.8279 2.69587 13.0287 2.69587 13.2772C2.69587 13.5257 2.89712 13.7257 3.14474 13.7261C3.39237 13.7266 3.59362 13.5249 3.59362 13.2764C3.59362 13.0279 3.39237 12.8279 3.14474 12.8275ZM4.59199 12.8275C4.34393 12.8279 4.14312 13.0287 4.14312 13.2772C4.14312 13.5257 4.34437 13.7257 4.59199 13.7261C4.83962 13.7266 5.04087 13.5249 5.04087 13.2764C5.04087 13.0279 4.83962 12.8279 4.59199 12.8275ZM24.8544 12.8275C24.6063 12.8279 24.4055 13.0287 24.4055 13.2772C24.4055 13.5257 24.6067 13.7257 24.8544 13.7261C25.102 13.7266 25.3032 13.5249 25.3032 13.2764C25.3032 13.0279 25.102 12.8279 24.8544 12.8275ZM1.69749 14.2756C1.44943 14.2756 1.24818 14.4769 1.24818 14.7249C1.24818 14.973 1.44943 15.1742 1.69749 15.1742C1.94556 15.1742 2.14681 14.973 2.14681 14.7249C2.14681 14.4769 1.94556 14.2756 1.69749 14.2756ZM3.14474 14.2756C2.89668 14.2756 2.69543 14.4769 2.69543 14.7249C2.69543 14.973 2.89668 15.1742 3.14474 15.1742C3.39281 15.1742 3.59406 14.973 3.59406 14.7249C3.59406 14.4769 3.39281 14.2756 3.14474 14.2756ZM24.8548 14.2756C24.6067 14.2756 24.4055 14.4769 24.4055 14.7249C24.4055 14.973 24.6067 15.1742 24.8548 15.1742C25.1029 15.1742 25.3041 14.973 25.3041 14.7249C25.3041 14.4769 25.1029 14.2756 24.8548 14.2756ZM26.3021 14.2756C26.054 14.2756 25.8527 14.4769 25.8527 14.7249C25.8527 14.973 26.054 15.1742 26.3021 15.1742C26.5501 15.1742 26.7514 14.973 26.7514 14.7249C26.7514 14.4769 26.5501 14.2756 26.3021 14.2756ZM21.9603 15.7229C21.7122 15.7229 21.511 15.9241 21.511 16.1722C21.511 16.4202 21.7122 16.6215 21.9603 16.6215C22.2084 16.6215 22.4096 16.4202 22.4096 16.1722C22.4096 15.9241 22.2084 15.7229 21.9603 15.7229ZM26.3021 15.7229C26.054 15.7229 25.8527 15.9241 25.8527 16.1722C25.8527 16.4202 26.054 16.6215 26.3021 16.6215C26.5501 16.6215 26.7514 16.4202 26.7514 16.1722C26.7514 15.9241 26.5501 15.7229 26.3021 15.7229ZM3.14562 17.1692C2.89756 17.1697 2.69674 17.3705 2.69674 17.619C2.69674 17.8675 2.89799 18.0674 3.14562 18.0679C3.39324 18.0683 3.59449 17.8666 3.59449 17.6181C3.59449 17.3696 3.39324 17.1697 3.14562 17.1692ZM4.59287 17.1692C4.34481 17.1697 4.14399 17.3705 4.14399 17.619C4.14399 17.8675 4.34524 18.0674 4.59287 18.0679C4.84049 18.0683 5.04174 17.8666 5.04174 17.6181C5.04174 17.3696 4.84049 17.1697 4.59287 17.1692ZM23.408 17.1692C23.1599 17.1697 22.9591 17.3705 22.9591 17.619C22.9591 17.8675 23.1604 18.0674 23.408 18.0679C23.6556 18.0683 23.8569 17.8666 23.8569 17.6181C23.8569 17.3696 23.6556 17.1697 23.408 17.1692ZM26.3025 17.1692C26.0544 17.1697 25.8536 17.3705 25.8536 17.619C25.8536 17.8675 26.0549 18.0674 26.3025 18.0679C26.5501 18.0683 26.7514 17.8666 26.7514 17.6181C26.7514 17.3696 26.5501 17.1697 26.3025 17.1692ZM26.3025 18.6165C26.0544 18.6169 25.8536 18.8177 25.8536 19.0662C25.8536 19.3147 26.0549 19.5147 26.3025 19.5151C26.5501 19.5156 26.7514 19.3139 26.7514 19.0654C26.7514 18.8169 26.5501 18.6169 26.3025 18.6165ZM24.8544 20.0637C24.6063 20.0642 24.4055 20.265 24.4055 20.5135C24.4055 20.762 24.6067 20.9619 24.8544 20.9624C25.102 20.9628 25.3032 20.7611 25.3032 20.5126C25.3032 20.2641 25.102 20.0642 24.8544 20.0637ZM26.3016 20.0637C26.0536 20.0642 25.8527 20.265 25.8527 20.5135C25.8527 20.762 26.054 20.9619 26.3016 20.9624C26.5492 20.9628 26.7505 20.7611 26.7505 20.5126C26.7505 20.2641 26.5492 20.0642 26.3016 20.0637ZM1.69749 21.511C1.44943 21.5114 1.24862 21.7122 1.24862 21.9607C1.24862 22.2092 1.44987 22.4092 1.69749 22.4096C1.94512 22.4101 2.14637 22.2084 2.14637 21.9599C2.14637 21.7114 1.94512 21.5114 1.69749 21.511ZM3.14474 21.511C2.89668 21.5114 2.69587 21.7122 2.69587 21.9607C2.69587 22.2092 2.89712 22.4092 3.14474 22.4096C3.39237 22.4101 3.59362 22.2084 3.59362 21.9599C3.59362 21.7114 3.39237 21.5114 3.14474 21.511ZM23.4071 21.511C23.1591 21.5114 22.9582 21.7122 22.9582 21.9607C22.9582 22.2092 23.1595 22.4092 23.4071 22.4096C23.6547 22.4101 23.856 22.2084 23.856 21.9599C23.856 21.7114 23.6547 21.5114 23.4071 21.511ZM6.03924 22.9582C5.79118 22.9587 5.59037 23.1595 5.59037 23.408C5.59037 23.6565 5.79162 23.8564 6.03924 23.8569C6.28687 23.8573 6.48812 23.6556 6.48812 23.4071C6.48812 23.1586 6.28687 22.9587 6.03924 22.9582ZM7.48649 22.9582C7.23843 22.9587 7.03762 23.1595 7.03762 23.408C7.03762 23.6565 7.23887 23.8564 7.48649 23.8569C7.73412 23.8573 7.93537 23.6556 7.93537 23.4071C7.93537 23.1586 7.73412 22.9587 7.48649 22.9582ZM8.93374 22.9582C8.68568 22.9587 8.48487 23.1595 8.48487 23.408C8.48487 23.6565 8.68612 23.8564 8.93374 23.8569C9.18137 23.8573 9.38262 23.6556 9.38262 23.4071C9.38262 23.1586 9.18137 22.9587 8.93374 22.9582ZM10.381 22.9582C10.1329 22.9587 9.93212 23.1595 9.93212 23.408C9.93212 23.6565 10.1334 23.8564 10.381 23.8569C10.6286 23.8573 10.8299 23.6556 10.8299 23.4071C10.8299 23.1586 10.6286 22.9587 10.381 22.9582ZM17.6172 22.9582C17.3692 22.9587 17.1684 23.1595 17.1684 23.408C17.1684 23.6565 17.3696 23.8564 17.6172 23.8569C17.8649 23.8573 18.0661 23.6556 18.0661 23.4071C18.0661 23.1586 17.8649 22.9587 17.6172 22.9582ZM20.5117 22.9582C20.2637 22.9587 20.0629 23.1595 20.0629 23.408C20.0629 23.6565 20.2641 23.8564 20.5117 23.8569C20.7594 23.8573 20.9606 23.6556 20.9606 23.4071C20.9606 23.1586 20.7594 22.9587 20.5117 22.9582ZM24.8535 22.9582C24.6054 22.9587 24.4046 23.1595 24.4046 23.408C24.4046 23.6565 24.6059 23.8564 24.8535 23.8569C25.1011 23.8573 25.3024 23.6556 25.3024 23.4071C25.3024 23.1586 25.1011 22.9587 24.8535 22.9582ZM3.14562 24.4055C2.89756 24.4059 2.69674 24.6067 2.69674 24.8552C2.69674 25.1037 2.89799 25.3037 3.14562 25.3041C3.39324 25.3046 3.59449 25.1029 3.59449 24.8544C3.59449 24.6059 3.39324 24.4059 3.14562 24.4055ZM7.48737 24.4055C7.23931 24.4059 7.03849 24.6067 7.03849 24.8552C7.03849 25.1037 7.23974 25.3037 7.48737 25.3041C7.73499 25.3046 7.93624 25.1029 7.93624 24.8544C7.93624 24.6059 7.73499 24.4059 7.48737 24.4055ZM8.93462 24.4055C8.68656 24.4059 8.48574 24.6067 8.48574 24.8552C8.48574 25.1037 8.68699 25.3037 8.93462 25.3041C9.18224 25.3046 9.38349 25.1029 9.38349 24.8544C9.38349 24.6059 9.18224 24.4059 8.93462 24.4055ZM10.3819 24.4055C10.1338 24.4059 9.93299 24.6067 9.93299 24.8552C9.93299 25.1037 10.1342 25.3037 10.3819 25.3041C10.6295 25.3046 10.8307 25.1029 10.8307 24.8544C10.8307 24.6059 10.6295 24.4059 10.3819 24.4055ZM11.8291 24.4055C11.5811 24.4059 11.3802 24.6067 11.3802 24.8552C11.3802 25.1037 11.5815 25.3037 11.8291 25.3041C12.0767 25.3046 12.278 25.1029 12.278 24.8544C12.278 24.6059 12.0767 24.4059 11.8291 24.4055ZM17.6186 24.4055C17.3705 24.4059 17.1697 24.6067 17.1697 24.8552C17.1697 25.1037 17.3709 25.3037 17.6186 25.3041C17.8662 25.3046 18.0674 25.1029 18.0674 24.8544C18.0674 24.6059 17.8662 24.4059 17.6186 24.4055ZM20.5131 24.4055C20.265 24.4059 20.0642 24.6067 20.0642 24.8552C20.0642 25.1037 20.2654 25.3037 20.5131 25.3041C20.7607 25.3046 20.9619 25.1029 20.9619 24.8544C20.9619 24.6059 20.7607 24.4059 20.5131 24.4055ZM23.4076 24.4055C23.1595 24.4059 22.9587 24.6067 22.9587 24.8552C22.9587 25.1037 23.1599 25.3037 23.4076 25.3041C23.6552 25.3046 23.8564 25.1029 23.8564 24.8544C23.8564 24.6059 23.6552 24.4059 23.4076 24.4055ZM24.8548 24.4055C24.6067 24.4059 24.4059 24.6067 24.4059 24.8552C24.4059 25.1037 24.6072 25.3037 24.8548 25.3041C25.1024 25.3046 25.3037 25.1029 25.3037 24.8544C25.3037 24.6059 25.1024 24.4059 24.8548 24.4055ZM8.92981 25.8527C8.68174 25.8527 8.48049 26.054 8.48049 26.3021C8.48049 26.5501 8.68174 26.7514 8.92981 26.7514C9.17787 26.7514 9.37912 26.5501 9.37912 26.3021C9.37912 26.054 9.17787 25.8527 8.92981 25.8527ZM10.3771 25.8527C10.129 25.8527 9.92774 26.054 9.92774 26.3021C9.92774 26.5501 10.129 26.7514 10.3771 26.7514C10.6251 26.7514 10.8264 26.5501 10.8264 26.3021C10.8264 26.054 10.6251 25.8527 10.3771 25.8527ZM13.2716 25.8527C13.0235 25.8527 12.8222 26.054 12.8222 26.3021C12.8222 26.5501 13.0235 26.7514 13.2716 26.7514C13.5196 26.7514 13.7209 26.5501 13.7209 26.3021C13.7209 26.054 13.5196 25.8527 13.2716 25.8527ZM14.7197 25.8527C14.4716 25.8527 14.2704 26.054 14.2704 26.3021C14.2704 26.5501 14.4716 26.7514 14.7197 26.7514C14.9677 26.7514 15.169 26.5501 15.169 26.3021C15.169 26.054 14.9677 25.8527 14.7197 25.8527ZM16.1669 25.8527C15.9189 25.8527 15.7176 26.054 15.7176 26.3021C15.7176 26.5501 15.9189 26.7514 16.1669 26.7514C16.415 26.7514 16.6162 26.5501 16.6162 26.3021C16.6162 26.054 16.415 25.8527 16.1669 25.8527ZM17.6142 25.8527C17.3661 25.8527 17.1649 26.054 17.1649 26.3021C17.1649 26.5501 17.3661 26.7514 17.6142 26.7514C17.8622 26.7514 18.0635 26.5501 18.0635 26.3021C18.0635 26.054 17.8622 25.8527 17.6142 25.8527ZM19.0614 25.8527C18.8134 25.8527 18.6121 26.054 18.6121 26.3021C18.6121 26.5501 18.8134 26.7514 19.0614 26.7514C19.3095 26.7514 19.5107 26.5501 19.5107 26.3021C19.5107 26.054 19.3095 25.8527 19.0614 25.8527Z" fill="#FFFC00"/>
</g>
<defs>
<clipPath id="clip0_22_205">
<rect width="28" height="28" fill="white"/>
</clipPath>
</defs>
</svg>
