<svg width="28" height="28" viewBox="0 0 28 28" fill="none" xmlns="http://www.w3.org/2000/svg">
<g clip-path="url(#clip0_96_5)">
<rect width="28" height="28" rx="2" fill="#37AEE2"/>
<path d="M10.8828 22.0938C10.2812 22.0938 10.3359 21.875 10.1719 21.3281L8.42188 15.5859L21.8203 7.71094" fill="#C8DAEA"/>
<path d="M10.8828 22.0938C11.2656 22.0938 11.4844 21.875 11.7578 21.6562L14.2188 19.3047L11.1562 17.4453" fill="#A9C9DD"/>
<path d="M11.1562 17.4453L18.5391 22.8594C19.3047 23.3516 19.9609 23.0781 20.1797 22.0937L23.1875 7.98437C23.4609 6.78125 22.6953 6.23437 21.875 6.61718L4.32031 13.3984C3.17187 13.8359 3.17187 14.5469 4.10156 14.8203L8.64062 16.2422L19.0312 9.625C19.5234 9.35156 19.9609 9.46093 19.6328 9.84375" fill="#F6FBFE"/>
</g>
<defs>
<clipPath id="clip0_96_5">
<rect width="28" height="28" fill="white"/>
</clipPath>
</defs>
</svg>
