<svg width="28" height="28" viewBox="0 0 28 28" fill="none" xmlns="http://www.w3.org/2000/svg">
<g clip-path="url(#clip0_97_13)">
<rect width="28" height="28" rx="2" fill="#ED1D24"/>
<path d="M23.3516 9.24218C23.1328 8.42187 22.4219 7.76562 21.6016 7.54687C19.7422 7.05468 8.53125 6.99999 6.39844 7.54687C5.57812 7.76562 4.86719 8.42187 4.64844 9.24218C4.15625 11.3203 4.10156 16.625 4.64844 18.7578C4.86719 19.5781 5.57812 20.2344 6.39844 20.4531C8.36719 21 19.5781 21 21.6016 20.4531C22.4219 20.2344 23.1328 19.5781 23.3516 18.7578C23.8437 16.7891 23.8437 11.2656 23.3516 9.24218Z" fill="white"/>
<path d="M12.0312 11.1016V16.8984L17.1172 14" fill="#ED1D24"/>
</g>
<defs>
<clipPath id="clip0_97_13">
<rect width="28" height="28" fill="white"/>
</clipPath>
</defs>
</svg>
